#!OML:ASF F:\VICON\USERDATA\Patient Classification 1\PLAYGROUND\JustinFriday\JustinFriday.ASF
:FULLY-SPECIFIED
:DEGREES
4652
root 15.2609 21.9915 49.7769 -6.02237 -168.983 11.5621
lowerback 23.497 -9.57967 8.39233
upperback 13.7451 -14.263 -1.56314
thorax 0.396779 -7.98662 -2.89974
lowerneck -21.1753 5.0479 -29.4834
upperneck 32.2266 18.3324 7.72696
head 11.1094 6.52947 10.0779
rclavicle -6.36111e-014 -2.06736e-014
rhumerus 28.3481 30.1758 -87.736
rradius 68.8132
rwrist 15.3208
rhand -41.8088 345.74
rfingers 7.12502
rthumb -14.7109 -43.7179
lclavicle -6.36111e-014 -2.06736e-014
lhumerus 34.7586 16.1588 75.8717
lradius 52.975
lwrist -27.9747
lhand -12.1626 -18.2471
lfingers 7.12502
lthumb 13.9003 11.2683
rfemur -11.9348 3.58631 37.7213
rtibia 33.0613
rfoot -25.5654 -6.9951
rtoes 42.7157
lfemur -72.4481 23.8134 -5.58343
ltibia 104.208
lfoot -27.0209 -24.4901
ltoes -1.94415
4653
root 15.2773 21.9644 49.8034 -5.50591 -169.648 11.8004
lowerback 22.9108 -9.31701 8.55362
upperback 13.6467 -13.897 -1.39509
thorax 0.609555 -7.77827 -3.00732
lowerneck -20.9206 5.13788 -29.3187
upperneck 32.1021 18.3627 7.54558
head 11.0454 6.55942 9.9574
rclavicle 1.28812e-013 -3.18055e-015
rhumerus 28.7995 30.2801 -87.5658
rradius 68.3948
rwrist 15.3845
rhand -41.6586 345.471
rfingers 7.12502
rthumb -14.5663 -43.9973
lclavicle 1.28812e-013 -3.18055e-015
lhumerus 35.0947 16.1934 75.7535
lradius 52.4766
lwrist -28.0098
lhand -12.0046 -18.2336
lfingers 7.12502
lthumb 14.0525 11.2713
rfemur -12.4838 3.89979 38.0809
rtibia 33.0357
rfoot -25.8356 -6.47329
rtoes 42.3796
lfemur -73.083 25.0105 -5.35973
ltibia 104.817
lfoot -27.1102 -23.2422
ltoes -2.19808
4654
root 15.2881 21.9599 49.8342 -5.27571 -169.979 11.6606
lowerback 22.67 -9.11256 8.38704
upperback 13.6229 -13.6775 -1.31374
thorax 0.766584 -7.6725 -2.9424
lowerneck -20.8684 4.83083 -28.9024
upperneck 32.506 17.9364 7.39998
head 11.3387 6.33325 9.89686
rclavicle 7.63333e-014 -5.08889e-014
rhumerus 29.2839 30.2792 -87.4917
rradius 67.9999
rwrist 15.567
rhand -41.3221 345.267
rfingers 7.12502
rthumb -14.242 -44.2251
lclavicle 7.63333e-014 -5.08889e-014
lhumerus 35.4258 16.1199 75.6279
lradius 51.8483
lwrist -27.951
lhand -12.0534 -18.0003
lfingers 7.12502
lthumb 14.0055 11.5079
rfemur -12.7146 3.81965 37.9638
rtibia 32.9513
rfoot -25.8938 -5.97497
rtoes 42.1652
lfemur -73.1026 25.5634 -5.5115
ltibia 105.375
lfoot -27.4006 -21.9906
ltoes -1.35091
4655
root 15.2975 21.9775 49.8723 -5.18189 -170.195 11.1524
lowerback 22.7273 -8.89211 7.83754
upperback 13.6297 -13.5039 -1.32336
thorax 0.85399 -7.61784 -2.713
lowerneck -20.4368 5.02681 -28.4647
upperneck 32.2332 18.0358 6.94931
head 11.2255 6.40695 9.61714
rclavicle 1.08934e-013 -7.4743e-014
rhumerus 29.8897 30.301 -87.3562
rradius 67.2145
rwrist 15.6594
rhand -41.3641 345.168
rfingers 7.12502
rthumb -14.2824 -44.3213
lclavicle 1.08934e-013 -7.4743e-014
lhumerus 35.7357 16.0405 75.4533
lradius 51.2067
lwrist -27.6644
lhand -12.2938 -18.0686
lfingers 7.12502
lthumb 13.7739 11.4555
rfemur -12.8373 3.54938 37.4181
rtibia 32.9637
rfoot -25.7008 -5.54513
rtoes 42.1764
lfemur -72.6484 25.7489 -5.98863
ltibia 105.886
lfoot -27.9501 -20.3291
ltoes -0.184908
4656
root 15.3015 21.9954 49.9123 -5.08629 -170.523 11.1237
lowerback 22.7811 -8.75623 7.80174
upperback 13.6641 -13.3621 -1.27769
thorax 0.900501 -7.56041 -2.68378
lowerneck -20.2377 5.04723 -28.0103
upperneck 31.8768 17.916 6.45468
head 11.1716 6.36634 9.32534
rclavicle -4.53229e-014 7.95139e-014
rhumerus 30.4996 30.4127 -87.2843
rradius 66.5758
rwrist 15.6327
rhand -41.4565 345.08
rfingers 7.12502
rthumb -14.3715 -44.4025
lclavicle -4.53229e-014 7.95139e-014
lhumerus 35.9849 15.9307 74.8613
lradius 50.6622
lwrist -26.9103
lhand -12.7448 -18.2672
lfingers 7.12502
lthumb 13.3392 11.2859
rfemur -13.0739 3.30746 37.3801
rtibia 33.0086
rfoot -25.4403 -5.19373
rtoes 42.0794
lfemur -72.2213 26.1641 -5.93926
ltibia 106.459
lfoot -28.4075 -18.5656
ltoes 0.899764
4657
root 15.3028 22.0094 49.9488 -4.86409 -170.873 11.3244
lowerback 22.6601 -8.68249 8.00584
upperback 13.7296 -13.277 -1.20474
thorax 1.02722 -7.51632 -2.76911
lowerneck -20.5863 4.96943 -27.5438
upperneck 32.0557 17.8277 6.30401
head 11.3756 6.30417 9.26286
rclavicle -1.09729e-013 1.08139e-013
rhumerus 31.288 30.5818 -87.3324
rradius 65.8464
rwrist 15.5036
rhand -41.6511 345.098
rfingers 7.12502
rthumb -14.559 -44.3707
lclavicle -1.09729e-013 1.08139e-013
lhumerus 36.2026 15.8617 74.0625
lradius 50.173
lwrist -26.0303
lhand -13.2393 -18.2898
lfingers 7.12502
lthumb 12.8625 11.2938
rfemur -13.5005 3.2522 37.5985
rtibia 33.0749
rfoot -24.7694 -5.07168
rtoes 42.1977
lfemur -71.925 26.8153 -5.67859
ltibia 107.085
lfoot -28.7172 -16.8785
ltoes 0.607557
4658
root 15.3047 22.0201 49.9812 -4.61257 -171.182 11.317
lowerback 22.3618 -8.44656 8.04064
upperback 13.515 -12.8965 -1.03058
thorax 0.993719 -7.30498 -2.72874
lowerneck -19.5725 4.93914 -27.3561
upperneck 32.0994 17.5024 6.23859
head 11.2864 6.21502 9.1272
rclavicle 5.88403e-014 3.02153e-014
rhumerus 31.3899 30.2981 -87.3171
rradius 65.1221
rwrist 15.483
rhand -41.4956 344.655
rfingers 7.12502
rthumb -14.4092 -44.8252
lclavicle 5.88403e-014 3.02153e-014
lhumerus 35.9726 15.358 73.9106
lradius 49.6989
lwrist -25.71
lhand -13.4952 -18.348
lfingers 7.12502
lthumb 12.6158 11.251
rfemur -13.9311 3.34475 37.6099
rtibia 33.1534
rfoot -23.7954 -5.28337
rtoes 42.5713
lfemur -71.5563 27.6217 -5.61123
ltibia 107.767
lfoot -29.0551 -15.3896
ltoes -0.525058
